<?xml version="1.0" standalone="no"?>
<!DOCTYPE svg PUBLIC "-//W3C//DTD SVG 20010904//EN"
 "http://www.w3.org/TR/2001/REC-SVG-20010904/DTD/svg10.dtd">
<svg version="1.0" xmlns="http://www.w3.org/2000/svg"
 width="260.000000pt" height="260.000000pt" viewBox="0 0 260.000000 260.000000"
 preserveAspectRatio="xMidYMid meet">
<metadata>
Created by potrace 1.11, written by Peter Selinger 2001-2013
</metadata>
<g transform="translate(0.000000,260.000000) scale(0.100000,-0.100000)"
fill="#000000" stroke="none">
<path d="M1970 2507 c0 -45 -83 -256 -109 -277 -3 -3 -20 -25 -36 -50 -17 -24
-100 -116 -185 -203 -254 -260 -362 -372 -410 -424 -128 -140 -292 -215 -458
-209 -125 4 -183 37 -230 132 -38 74 -50 196 -27 271 8 26 13 48 11 50 -1 2
-23 -4 -47 -13 -24 -9 -49 -17 -54 -18 -29 -5 -126 -69 -168 -111 -67 -66
-112 -138 -138 -220 -11 -38 -24 -77 -27 -85 -9 -24 -9 -180 0 -174 4 3 8 -6
8 -19 0 -38 31 -118 66 -172 123 -188 341 -280 564 -238 161 29 177 41 540
367 19 17 71 63 115 101 114 100 289 260 349 321 59 59 194 162 261 200 151
84 365 149 505 154 19 0 22 3 10 9 -8 5 -28 12 -45 15 -16 3 -70 14 -120 23
-49 10 -111 18 -137 18 -27 0 -48 3 -48 8 0 4 -5 5 -10 2 -6 -4 -41 -9 -78
-11 -37 -3 -94 -11 -127 -19 -33 -7 -61 -12 -63 -10 -4 3 50 22 88 30 14 2 66
14 115 25 50 11 113 22 140 25 82 8 147 26 193 52 48 27 102 95 102 128 0 11
6 27 13 34 10 11 10 13 0 7 -8 -5 -13 -1 -13 11 0 39 -37 78 -106 112 -58 29
-84 36 -164 41 -115 8 -152 23 -221 89 -29 28 -54 51 -56 51 -2 0 -3 -10 -3
-23z"/>
<path d="M1962 1590 c-46 -21 -193 -116 -227 -147 -11 -10 -65 -57 -120 -104
-136 -118 -217 -191 -351 -315 -247 -230 -277 -254 -368 -299 -168 -82 -360
-84 -541 -4 -59 26 -121 73 -188 141 -66 68 -68 69 -52 32 49 -119 150 -230
260 -289 139 -74 297 -89 466 -45 35 10 122 52 146 71 7 7 14 6 18 -1 3 -5 4
-10 1 -10 -8 0 33 -138 56 -188 49 -106 122 -191 220 -256 61 -41 205 -96 253
-96 21 0 26 -3 16 -9 -8 -5 25 -9 85 -10 68 -1 94 2 84 9 -13 9 -13 10 0 10 8
0 -8 12 -35 26 -99 53 -169 110 -224 184 -14 19 -29 37 -32 40 -6 5 -63 120
-65 130 0 3 -7 25 -14 50 -21 67 -23 86 -22 190 1 143 14 196 75 315 35 70 61
100 196 234 172 169 301 282 376 330 56 35 50 40 -13 11z"/>
<path d="M2050 1226 c0 -7 92 -47 97 -42 7 7 -39 33 -69 40 -16 4 -28 4 -28 2z"/>
<path d="M1842 1205 c-18 -8 -33 -14 -35 -14 -9 1 -64 -25 -95 -46 -45 -31
-26 -33 31 -3 23 11 51 23 62 25 11 2 35 6 53 9 36 7 66 44 35 44 -10 -1 -33
-7 -51 -15z"/>
<path d="M1930 1210 c-22 -13 -12 -17 68 -24 41 -3 78 -8 83 -12 5 -3 9 -1 9
4 0 20 -135 48 -160 32z"/>
<path d="M2176 1175 c11 -17 25 -25 45 -25 40 0 36 12 -11 33 -52 22 -54 22
-34 -8z"/>
<path d="M1924 1148 c3 -13 6 -27 6 -32 0 -4 7 -5 17 -2 9 4 32 9 52 12 20 4
43 8 51 9 8 2 26 4 40 5 l25 1 -25 10 c-14 6 -58 12 -99 15 -72 4 -73 4 -67
-18z"/>
<path d="M1810 1146 c-51 -15 -123 -51 -139 -70 -11 -13 -8 -83 4 -94 2 -3 22
7 43 21 21 14 72 42 113 62 41 21 75 39 77 40 2 1 0 14 -4 29 -7 30 -23 32
-94 12z"/>
<path d="M2251 1136 c2 -2 24 -13 49 -25 l45 -22 -22 22 c-12 12 -34 23 -48
25 -15 2 -26 1 -24 0z"/>
<path d="M2108 1125 c-1 -2 -21 -6 -43 -9 -23 -4 -52 -9 -65 -12 -14 -3 -31
-6 -37 -6 -27 -2 -8 -35 34 -61 7 -4 41 12 77 37 39 27 60 46 51 49 -7 3 -15
4 -17 2z"/>
<path d="M2114 1079 c-27 -18 -59 -39 -71 -49 l-22 -17 29 -21 c15 -12 39 -24
53 -27 23 -6 26 -2 46 65 12 40 20 74 18 76 -2 2 -26 -10 -53 -27z"/>
<path d="M2168 1024 l-25 -75 26 -11 c37 -14 81 -21 81 -12 0 12 -50 174 -54
174 -2 0 -15 -34 -28 -76z"/>
<path d="M2293 1036 c26 -31 51 -65 57 -76 13 -24 38 -26 47 -4 6 17 -61 85
-117 118 -31 18 -31 17 13 -38z"/>
<path d="M2310 1081 c0 -5 12 -17 28 -27 15 -9 35 -26 45 -37 22 -26 31 -18
12 10 -16 23 -85 67 -85 54z"/>
<path d="M1852 1055 c-29 -13 -77 -41 -107 -61 l-55 -36 33 -45 c17 -25 45
-56 60 -69 l29 -24 21 27 c11 16 51 59 88 97 l68 68 -31 34 c-17 19 -36 34
-42 34 -6 0 -35 -11 -64 -25z"/>
<path d="M2235 1053 c4 -10 15 -45 24 -78 15 -56 18 -60 46 -60 17 0 33 4 37
9 3 5 -17 40 -45 77 -50 66 -77 88 -62 52z"/>
<path d="M1584 1005 c-70 -75 -89 -120 -78 -188 5 -31 8 -36 20 -26 8 6 14 16
14 21 0 12 51 77 92 118 20 21 28 36 23 49 -3 11 -8 29 -10 42 -7 36 -13 34
-61 -16z"/>
<path d="M1916 908 c-47 -49 -86 -93 -86 -98 0 -21 169 -115 192 -108 5 2 21
35 34 73 13 39 28 79 34 90 22 46 30 75 18 75 -6 0 -32 13 -58 29 l-48 29 -86
-90z"/>
<path d="M2447 941 c16 -27 30 -48 32 -46 6 7 -40 95 -50 95 -5 0 3 -22 18
-49z"/>
<path d="M2398 929 c-15 -16 -15 -21 7 -76 13 -32 29 -86 35 -120 7 -35 16
-63 20 -63 3 0 17 11 30 25 19 20 22 31 16 65 -6 41 -51 139 -78 171 -12 15
-14 15 -30 -2z"/>
<path d="M1625 895 c-43 -47 -65 -80 -85 -131 -7 -16 -1 -32 25 -68 54 -76
115 -122 115 -86 0 9 54 99 91 152 26 37 24 46 -14 82 -18 17 -44 47 -59 66
l-27 34 -46 -49z"/>
<path d="M2089 807 c-25 -67 -45 -123 -44 -125 3 -4 99 -30 135 -37 14 -3 35
-7 47 -9 13 -3 24 1 27 11 12 31 7 236 -6 249 -2 2 -19 6 -37 9 -19 3 -42 10
-52 15 -10 6 -19 10 -21 10 -2 0 -24 -55 -49 -123z"/>
<path d="M2282 892 c-7 -2 -10 -8 -7 -13 7 -11 7 -194 1 -227 -5 -22 -3 -23
47 -21 75 4 107 16 107 42 -1 36 -19 108 -43 170 -21 56 -23 57 -57 55 -20 -1
-41 -3 -48 -6z"/>
<path d="M1478 799 c-9 -25 -10 -179 0 -179 5 0 8 10 7 23 -2 13 3 40 10 61
11 30 11 45 1 74 -8 22 -15 30 -18 21z"/>
<path d="M1766 721 c-25 -38 -54 -87 -65 -109 l-20 -39 42 -30 c23 -17 75 -47
115 -68 70 -36 74 -37 87 -19 8 11 15 23 15 27 0 10 56 143 70 169 8 14 -3 24
-71 60 -44 23 -88 50 -99 60 -11 10 -22 18 -25 18 -3 0 -25 -31 -49 -69z"/>
<path d="M1514 699 c-4 -7 -8 -47 -9 -89 -3 -92 8 -119 70 -180 37 -36 45 -41
46 -25 1 32 8 65 25 113 l15 45 -61 61 c-33 33 -60 66 -60 73 0 16 -16 17 -26
2z"/>
<path d="M2477 656 c-22 -18 -27 -30 -27 -66 0 -25 -7 -70 -15 -100 -8 -30
-13 -55 -11 -57 1 -2 12 6 23 17 32 29 85 212 65 224 -4 2 -19 -6 -35 -18z"/>
<path d="M2020 635 c-5 -14 -10 -29 -10 -31 0 -3 -9 -24 -19 -47 -41 -90 -51
-121 -44 -128 9 -9 191 -59 214 -59 20 0 57 84 75 170 7 35 12 65 11 66 -2 2
-153 42 -194 51 -18 4 -25 -1 -33 -22z"/>
<path d="M2395 620 c-16 -4 -51 -8 -76 -9 -50 -1 -53 -4 -66 -86 -3 -16 -15
-57 -28 -92 -12 -34 -20 -64 -18 -67 2 -2 18 -2 34 0 132 18 146 25 164 87 15
49 32 178 24 176 -2 -1 -17 -5 -34 -9z"/>
<path d="M1661 503 c-21 -88 -21 -122 1 -143 22 -20 167 -95 172 -89 2 2 20
37 40 76 l36 73 -63 29 c-34 16 -86 45 -116 65 -29 20 -54 36 -56 36 -2 0 -8
-21 -14 -47z"/>
<path d="M1556 403 c10 -16 33 -44 51 -63 l34 -35 -11 29 c-9 24 -75 96 -88
96 -2 0 4 -12 14 -27z"/>
<path d="M1888 335 l-38 -75 71 -21 c108 -33 140 -31 175 10 33 39 67 92 62
96 -3 3 -99 28 -157 41 -13 3 -32 9 -42 14 -10 6 -21 10 -26 10 -4 0 -25 -34
-45 -75z"/>
<path d="M2395 373 l-17 -28 23 22 c12 12 20 25 17 28 -3 3 -13 -7 -23 -22z"/>
<path d="M2322 360 c-12 -5 -47 -10 -78 -11 -54 -2 -57 -4 -81 -43 -14 -23
-37 -53 -51 -68 l-26 -28 50 0 c83 1 182 60 220 133 16 30 8 34 -34 17z"/>
<path d="M1659 313 c17 -32 51 -63 90 -83 38 -19 39 -19 55 -1 16 18 14 21
-59 60 -85 46 -101 50 -86 24z"/>
<path d="M1823 221 c-12 -19 -10 -21 25 -30 84 -22 162 -23 162 -2 0 4 -30 14
-67 24 -38 10 -77 20 -88 23 -13 3 -24 -2 -32 -15z"/>
<path d="M2030 180 c-13 -9 -13 -10 0 -9 8 0 24 4 35 9 l20 9 -20 0 c-11 0
-27 -4 -35 -9z"/>
</g>
</svg>
